<svg width="74" height="16" viewBox="0 0 74 16" fill="none" xmlns="http://www.w3.org/2000/svg">
<path d="M7.14 15.277C5.23333 15.277 3.74 14.817 2.66 13.897C1.59333 12.9637 1.02667 11.617 0.96 9.857C0.946667 9.497 0.94 8.91033 0.94 8.097C0.94 7.27033 0.946667 6.67033 0.96 6.297C1.02667 4.56366 1.60667 3.23033 2.7 2.29699C3.79333 1.35033 5.27333 0.876995 7.14 0.876995C8.31333 0.876995 9.36667 1.077 10.3 1.477C11.2333 1.86366 11.9667 2.42366 12.5 3.157C13.0467 3.877 13.3267 4.72366 13.34 5.697V5.737C13.34 5.84366 13.2933 5.937 13.2 6.017C13.12 6.08366 13.0267 6.117 12.92 6.117H10.22C10.0467 6.117 9.91333 6.08366 9.82 6.017C9.72667 5.937 9.64667 5.797 9.58 5.597C9.39333 4.917 9.1 4.44366 8.7 4.177C8.3 3.897 7.77333 3.75699 7.12 3.75699C5.54667 3.75699 4.73333 4.637 4.68 6.397C4.66667 6.757 4.66 7.31033 4.66 8.057C4.66 8.80366 4.66667 9.37033 4.68 9.757C4.73333 11.517 5.54667 12.397 7.12 12.397C7.77333 12.397 8.30667 12.257 8.72 11.977C9.13333 11.6837 9.42 11.2103 9.58 10.557C9.63333 10.357 9.70667 10.2237 9.8 10.157C9.89333 10.077 10.0333 10.037 10.22 10.037H12.92C13.04 10.037 13.14 10.077 13.22 10.157C13.3133 10.237 13.3533 10.337 13.34 10.457C13.3267 11.4303 13.0467 12.2837 12.5 13.017C11.9667 13.737 11.2333 14.297 10.3 14.697C9.36667 15.0837 8.31333 15.277 7.14 15.277ZM20.143 15.277C18.4896 15.277 17.2163 14.8837 16.323 14.097C15.4296 13.3103 14.943 12.2037 14.863 10.777C14.8496 10.6037 14.843 10.3037 14.843 9.877C14.843 9.45033 14.8496 9.15033 14.863 8.977C14.943 7.56366 15.443 6.46366 16.363 5.677C17.283 4.877 18.543 4.477 20.143 4.477C21.7563 4.477 23.023 4.877 23.943 5.677C24.863 6.46366 25.363 7.56366 25.443 8.977C25.4563 9.15033 25.463 9.45033 25.463 9.877C25.463 10.3037 25.4563 10.6037 25.443 10.777C25.363 12.2037 24.8763 13.3103 23.983 14.097C23.0896 14.8837 21.8096 15.277 20.143 15.277ZM20.143 12.837C20.7296 12.837 21.163 12.6637 21.443 12.317C21.723 11.957 21.883 11.4103 21.923 10.677C21.9363 10.5437 21.943 10.277 21.943 9.877C21.943 9.477 21.9363 9.21033 21.923 9.077C21.883 8.357 21.7163 7.817 21.423 7.457C21.143 7.097 20.7163 6.917 20.143 6.917C19.0363 6.917 18.4496 7.637 18.383 9.077L18.363 9.877L18.383 10.677C18.4096 11.4103 18.563 11.957 18.843 12.317C19.1363 12.6637 19.5696 12.837 20.143 12.837ZM31.3295 15.277C30.0229 15.277 29.0029 14.8703 28.2695 14.057C27.5495 13.2303 27.1562 12.0703 27.0895 10.577L27.0695 9.877L27.0895 9.157C27.1429 7.717 27.5362 6.577 28.2695 5.737C29.0162 4.897 30.0362 4.477 31.3295 4.477C32.5429 4.477 33.5229 4.87033 34.2695 5.657V1.37699C34.2695 1.23033 34.3162 1.11033 34.4095 1.017C34.5029 0.923662 34.6229 0.876995 34.7695 0.876995H37.2095C37.3562 0.876995 37.4762 0.923662 37.5695 1.017C37.6629 1.11033 37.7095 1.23033 37.7095 1.37699V14.577C37.7095 14.7103 37.6629 14.8303 37.5695 14.937C37.4762 15.0303 37.3562 15.077 37.2095 15.077H34.9495C34.8162 15.077 34.6962 15.0303 34.5895 14.937C34.4962 14.8303 34.4495 14.7103 34.4495 14.577V13.937C33.7162 14.8303 32.6762 15.277 31.3295 15.277ZM32.4295 12.597C33.0295 12.597 33.4762 12.4103 33.7695 12.037C34.0629 11.6503 34.2295 11.157 34.2695 10.557C34.2829 10.3837 34.2895 10.1303 34.2895 9.797C34.2895 9.477 34.2829 9.23033 34.2695 9.057C34.2429 8.51033 34.0762 8.057 33.7695 7.697C33.4629 7.337 33.0162 7.157 32.4295 7.157C31.8029 7.157 31.3495 7.34366 31.0695 7.717C30.8029 8.09033 30.6495 8.60366 30.6095 9.257C30.5962 9.39033 30.5895 9.597 30.5895 9.877C30.5895 10.157 30.5962 10.3637 30.6095 10.497C30.6495 11.1503 30.8029 11.6637 31.0695 12.037C31.3495 12.4103 31.8029 12.597 32.4295 12.597ZM44.8667 15.277C43.2667 15.277 42.0067 14.8437 41.0867 13.977C40.1667 13.1103 39.6867 11.8503 39.6467 10.197V9.497C39.7001 7.92366 40.1867 6.697 41.1067 5.817C42.0401 4.92366 43.2867 4.477 44.8467 4.477C45.9801 4.477 46.9334 4.71033 47.7067 5.177C48.4934 5.63033 49.0801 6.257 49.4667 7.057C49.8667 7.857 50.0667 8.777 50.0667 9.817V10.297C50.0667 10.4303 50.0201 10.5503 49.9267 10.657C49.8334 10.7503 49.7134 10.797 49.5667 10.797H43.1667V10.937C43.1934 11.5637 43.3467 12.0703 43.6267 12.457C43.9067 12.8437 44.3134 13.037 44.8467 13.037C45.1801 13.037 45.4534 12.9703 45.6667 12.837C45.8801 12.6903 46.0734 12.517 46.2467 12.317C46.3667 12.1703 46.4601 12.0837 46.5267 12.057C46.6067 12.017 46.7267 11.997 46.8867 11.997H49.3667C49.4867 11.997 49.5867 12.037 49.6667 12.117C49.7601 12.1837 49.8067 12.277 49.8067 12.397C49.8067 12.7437 49.6067 13.1437 49.2067 13.597C48.8201 14.0503 48.2534 14.4437 47.5067 14.777C46.7601 15.1103 45.8801 15.277 44.8667 15.277ZM46.5467 8.817V8.777C46.5467 8.12366 46.3934 7.61033 46.0867 7.237C45.7934 6.85033 45.3801 6.657 44.8467 6.657C44.3267 6.657 43.9134 6.85033 43.6067 7.237C43.3134 7.61033 43.1667 8.12366 43.1667 8.777V8.817H46.5467ZM55.2511 15.077C55.0644 15.077 54.9178 15.037 54.8111 14.957C54.7178 14.8637 54.6378 14.737 54.5711 14.577L50.7911 5.297L50.7511 5.117C50.7511 4.997 50.7911 4.897 50.8711 4.817C50.9644 4.72366 51.0778 4.677 51.2111 4.677H53.4711C53.7644 4.677 53.9578 4.817 54.0511 5.097L56.3111 11.237L58.5911 5.097C58.6844 4.817 58.8778 4.677 59.1711 4.677H61.4311C61.5511 4.677 61.6578 4.72366 61.7511 4.817C61.8444 4.897 61.8911 4.997 61.8911 5.117L61.8511 5.297L58.0711 14.577C58.0044 14.737 57.9178 14.8637 57.8111 14.957C57.7044 15.037 57.5578 15.077 57.3711 15.077H55.2511ZM67.975 15.277C66.3217 15.277 65.0483 14.8837 64.155 14.097C63.2617 13.3103 62.775 12.2037 62.695 10.777C62.6817 10.6037 62.675 10.3037 62.675 9.877C62.675 9.45033 62.6817 9.15033 62.695 8.977C62.775 7.56366 63.275 6.46366 64.195 5.677C65.115 4.877 66.375 4.477 67.975 4.477C69.5883 4.477 70.855 4.877 71.775 5.677C72.695 6.46366 73.195 7.56366 73.275 8.977C73.2883 9.15033 73.295 9.45033 73.295 9.877C73.295 10.3037 73.2883 10.6037 73.275 10.777C73.195 12.2037 72.7083 13.3103 71.815 14.097C70.9217 14.8837 69.6417 15.277 67.975 15.277ZM67.975 12.837C68.5617 12.837 68.995 12.6637 69.275 12.317C69.555 11.957 69.715 11.4103 69.755 10.677C69.7683 10.5437 69.775 10.277 69.775 9.877C69.775 9.477 69.7683 9.21033 69.755 9.077C69.715 8.357 69.5483 7.817 69.255 7.457C68.975 7.097 68.5483 6.917 67.975 6.917C66.8683 6.917 66.2817 7.637 66.215 9.077L66.195 9.877L66.215 10.677C66.2417 11.4103 66.395 11.957 66.675 12.317C66.9683 12.6637 67.4017 12.837 67.975 12.837Z" fill="#FF5151"/>
</svg>
